<?xml version="1.0" standalone="no"?>
<!DOCTYPE svg PUBLIC "-//W3C//DTD SVG 20010904//EN"
 "http://www.w3.org/TR/2001/REC-SVG-20010904/DTD/svg10.dtd">
<svg version="1.0" xmlns="http://www.w3.org/2000/svg"
 width="1764.000000pt" height="900.000000pt" viewBox="0 0 1764.000000 900.000000"
 preserveAspectRatio="xMidYMid meet">

<g transform="translate(0.000000,900.000000) scale(0.100000,-0.100000)"
fill="#000000" stroke="none">
<path d="M4570 7573 c-64 -25 -419 -204 -429 -217 -20 -24 -8 -32 86 -60 94
-28 129 -48 137 -79 3 -12 6 -217 6 -454 l0 -433 -42 0 c-24 1 -70 7 -103 15
-78 19 -260 19 -350 0 -121 -26 -288 -117 -366 -202 -218 -234 -284 -514 -198
-832 26 -96 96 -232 153 -297 58 -66 121 -106 218 -138 163 -55 322 -22 567
119 55 31 105 54 111 50 6 -3 10 -46 10 -101 0 -69 3 -94 13 -94 18 0 340 131
414 169 34 17 64 35 67 40 9 15 -22 21 -98 20 -84 -1 -113 17 -136 84 -15 42
-16 163 -14 1209 2 686 -1 1172 -6 1186 -10 23 -14 25 -40 15z m-448 -1340
c95 -34 217 -147 238 -221 6 -23 10 -200 10 -454 l0 -417 -22 -21 c-29 -27
-58 -42 -144 -76 -187 -72 -426 -4 -549 157 -103 133 -137 245 -137 445 1 155
17 234 69 341 61 122 142 201 253 244 61 24 217 26 282 2z"/>
<path d="M6673 7475 c-244 -120 -256 -133 -155 -160 103 -29 143 -47 160 -73
16 -24 17 -104 20 -1051 2 -728 -1 -1041 -9 -1080 -16 -77 -70 -129 -163 -156
-78 -22 -94 -41 -44 -50 46 -8 695 -2 704 8 11 11 1 17 -73 44 -83 30 -125 57
-150 98 -17 29 -18 82 -18 1265 0 679 -4 1241 -8 1248 -16 24 -54 10 -264 -93z"/>
<path d="M11798 7177 c-52 -31 -69 -58 -74 -120 -4 -42 0 -60 18 -91 29 -49
87 -81 150 -81 52 0 82 21 125 89 46 71 10 161 -80 205 -56 27 -93 26 -139 -2z"/>
<path d="M1194 7179 c-12 -19 12 -31 96 -45 132 -23 220 -80 241 -157 15 -56
16 -1799 1 -1852 -12 -41 -73 -110 -122 -136 -16 -9 -75 -16 -170 -19 l-145
-5 -3 -26 c-2 -20 2 -28 20 -33 37 -9 1781 -7 1797 3 16 10 22 50 51 326 11
110 22 208 23 219 1 10 -6 23 -15 29 -27 18 -43 -7 -67 -106 -35 -144 -102
-251 -183 -293 -50 -26 -188 -35 -479 -32 -316 3 -331 6 -366 71 -16 29 -18
72 -21 432 -2 220 0 415 3 433 l6 32 320 0 c342 0 361 -2 406 -51 33 -36 52
-90 59 -169 6 -62 9 -71 30 -76 13 -3 28 -3 33 1 12 7 16 670 5 699 -8 21 -41
20 -52 -1 -6 -10 -13 -38 -17 -63 -12 -72 -40 -116 -92 -147 l-48 -28 -275 -5
c-151 -3 -297 -3 -325 0 l-50 5 0 423 c0 365 2 424 15 432 18 11 610 12 688 1
63 -9 128 -51 154 -101 10 -20 29 -85 42 -145 23 -103 39 -135 69 -135 6 0 7
65 3 173 -9 209 -21 324 -37 343 -10 12 -139 14 -800 14 -556 0 -790 -3 -795
-11z"/>
<path d="M14305 6993 c-9 -38 5 -51 78 -73 85 -26 185 -74 270 -132 80 -53
213 -189 256 -261 110 -185 140 -430 85 -688 -46 -221 -50 -257 -30 -330 28
-106 29 -103 -36 -110 -67 -7 -111 -36 -163 -107 -50 -69 -66 -123 -72 -248
-16 -330 133 -679 329 -769 81 -37 174 -58 224 -50 50 7 55 -2 29 -51 -18 -34
-19 -103 -4 -159 6 -22 47 -119 90 -216 87 -195 113 -283 130 -440 23 -222
-30 -413 -178 -636 -176 -266 -509 -466 -868 -519 -102 -15 -125 -27 -125 -66
0 -28 19 -30 91 -13 35 9 73 19 85 22 16 3 23 -1 27 -17 5 -19 8 -20 29 -8 13
7 26 17 29 22 4 5 11 6 16 3 5 -3 27 -2 49 3 32 8 41 6 52 -8 14 -18 40 -22
59 -9 6 4 24 10 40 13 15 2 37 6 49 9 13 3 28 -3 39 -16 11 -11 25 -17 34 -14
9 4 57 13 106 21 206 33 472 144 632 262 161 120 299 293 387 485 78 169 105
317 86 478 -19 168 -52 278 -134 449 -110 227 -118 274 -65 378 34 69 32 94
-9 116 -22 12 -32 11 -69 -1 -24 -8 -58 -13 -76 -9 -18 3 -55 9 -84 14 -119
19 -239 149 -296 322 -38 112 -59 271 -55 403 4 140 26 193 102 245 43 28 56
32 117 32 56 0 73 4 89 20 24 24 25 36 4 75 -50 90 -55 108 -55 173 0 37 12
117 26 177 48 201 50 396 5 570 -80 314 -338 549 -718 656 -69 19 -104 21
-339 23 -261 1 -262 1 -268 -21z m763 -132 c150 -55 354 -232 425 -368 52
-100 73 -166 93 -290 16 -92 16 -121 6 -222 -7 -64 -24 -170 -37 -236 -30
-146 -32 -217 -5 -285 11 -28 20 -53 20 -55 0 -3 -22 -5 -49 -5 -49 0 -50 0
-79 53 -40 71 -46 132 -22 242 47 216 53 253 53 375 0 261 -73 458 -227 614
-45 45 -112 104 -151 130 -107 75 -108 76 -27 47z m-321 -27 c165 -79 314
-218 383 -358 97 -197 119 -420 65 -666 -38 -172 -44 -292 -16 -355 12 -26 21
-49 21 -51 0 -2 -24 -4 -54 -4 -51 0 -56 2 -72 33 -9 17 -23 44 -31 59 -27 52
-27 119 0 239 33 146 35 157 46 261 25 223 -47 491 -173 650 -40 50 -144 141
-238 206 -29 21 -30 23 -8 17 14 -4 48 -18 77 -31z m204 -10 c158 -79 320
-241 379 -379 60 -141 86 -314 70 -480 -6 -65 -13 -121 -15 -125 -3 -4 -14
-54 -25 -111 -24 -124 -25 -211 -5 -269 21 -60 20 -62 -27 -58 -40 3 -45 6
-70 53 -41 75 -44 120 -18 243 72 342 69 526 -11 733 -57 147 -166 279 -315
380 -41 27 -74 52 -74 55 0 9 41 -7 111 -42z m5 -1561 c-44 -90 -58 -154 -58
-271 0 -225 72 -455 192 -607 66 -85 67 -87 33 -79 -79 18 -210 139 -262 242
-81 160 -126 486 -85 621 26 87 109 157 191 160 22 1 22 0 -11 -66z m204 50
c0 -3 -11 -25 -25 -49 -39 -66 -55 -146 -55 -269 0 -235 64 -449 179 -598 29
-38 50 -71 46 -75 -23 -24 -196 130 -237 213 -60 117 -99 309 -101 487 0 101
1 110 32 173 26 52 43 73 79 96 43 27 82 38 82 22z m171 -45 c-44 -77 -61
-156 -61 -278 0 -230 68 -450 184 -597 25 -33 46 -62 46 -66 0 -33 -123 44
-191 120 -70 77 -123 219 -149 399 -13 89 -13 269 0 315 20 70 118 158 178
159 22 0 22 0 -7 -52z m159 -1045 c0 -3 -8 -30 -17 -59 -27 -88 -16 -129 111
-415 111 -249 139 -481 83 -684 -32 -115 -87 -238 -152 -334 -87 -130 -279
-294 -425 -365 -30 -14 -55 -26 -57 -26 -15 0 26 39 105 99 98 76 143 127 227
256 147 225 213 440 195 638 -19 210 -44 300 -133 481 -63 126 -87 196 -93
271 -6 72 7 103 56 127 34 17 100 25 100 11z m190 2 c0 -2 -9 -19 -20 -37 -37
-60 -22 -150 52 -313 143 -314 161 -381 162 -585 0 -108 -4 -153 -22 -225 -26
-104 -90 -241 -156 -335 -107 -152 -301 -312 -481 -395 -44 -21 -84 -40 -90
-43 -19 -9 13 20 33 32 12 6 58 36 104 67 181 124 280 243 398 482 88 178 115
335 91 533 -20 157 -38 220 -106 364 -99 210 -107 235 -109 323 -1 77 0 79 32
108 24 22 42 29 72 29 22 0 40 -2 40 -5z m180 -5 c0 -6 -7 -27 -15 -47 -8 -19
-15 -48 -15 -63 0 -59 42 -185 109 -326 79 -168 106 -259 123 -416 11 -96 10
-122 -6 -216 -22 -131 -67 -255 -132 -363 -56 -94 -204 -255 -302 -329 -72
-55 -303 -175 -323 -168 -7 2 27 28 77 58 214 129 343 270 459 500 65 130 115
315 115 429 0 60 -30 245 -53 326 -21 73 -32 99 -92 217 -62 121 -85 196 -85
281 0 68 10 91 48 111 31 17 92 21 92 6z"/>
<path d="M5575 6414 c-38 -8 -108 -33 -154 -56 -169 -81 -295 -249 -367 -488
-27 -89 -29 -106 -29 -265 1 -164 2 -173 33 -265 43 -128 92 -210 182 -301
189 -190 404 -215 681 -80 123 61 314 221 307 259 -6 30 -33 23 -99 -25 -220
-162 -450 -182 -637 -54 -110 75 -184 180 -228 327 -24 79 -27 280 -4 294 9 6
205 10 485 10 259 0 475 4 481 8 69 46 -42 341 -187 496 -55 59 -83 79 -150
111 -71 33 -94 39 -163 42 -47 1 -111 -4 -151 -13z m182 -124 c60 -36 102 -79
153 -157 38 -57 51 -88 61 -143 10 -55 10 -73 0 -83 -9 -9 -96 -13 -324 -15
-172 -2 -323 0 -336 3 -22 6 -23 10 -17 51 8 63 57 175 102 234 42 54 108 106
163 127 52 19 151 11 198 -17z"/>
<path d="M10595 6415 c-33 -9 -101 -36 -152 -61 -78 -38 -105 -59 -168 -126
-61 -65 -87 -103 -130 -192 -76 -155 -99 -254 -99 -431 -1 -117 3 -153 22
-219 76 -266 257 -457 476 -503 194 -40 464 67 655 261 43 43 62 69 58 80 -10
26 -33 19 -99 -30 -162 -119 -315 -162 -466 -130 -95 20 -161 56 -245 135
-116 110 -177 265 -177 455 0 35 4 76 10 90 l10 26 478 0 c358 0 481 3 490 12
27 27 6 152 -44 264 -39 86 -126 214 -179 263 -26 24 -81 59 -123 79 -68 31
-88 36 -167 39 -56 1 -113 -3 -150 -12z m185 -125 c62 -32 143 -118 179 -192
37 -74 53 -184 30 -199 -8 -5 -159 -9 -337 -9 l-322 0 -11 23 c-8 18 -5 39 15
97 49 139 120 230 219 280 54 28 69 31 122 27 35 -2 79 -14 105 -27z"/>
<path d="M12858 6405 c-121 -30 -253 -117 -313 -208 -44 -67 -69 -163 -61
-235 16 -135 117 -262 301 -377 268 -166 344 -252 345 -388 0 -94 -46 -176
-127 -224 -40 -23 -51 -25 -122 -20 -99 6 -160 36 -232 115 -31 32 -74 96 -98
141 -56 107 -71 107 -70 -1 1 -46 6 -137 13 -203 l11 -120 31 -3 c20 -2 36 4
49 18 22 25 33 25 126 1 168 -43 303 -35 420 25 111 56 177 142 211 276 24 96
17 155 -32 255 -44 88 -105 151 -225 229 -340 221 -348 227 -392 302 -31 52
-28 102 10 185 18 40 37 63 68 84 38 25 51 28 124 28 74 -1 86 -3 131 -32 68
-44 96 -76 144 -165 43 -81 63 -104 80 -93 13 8 14 300 0 326 -34 62 -272 113
-392 84z"/>
<path d="M13985 6409 c-82 -16 -205 -82 -267 -143 -80 -78 -112 -149 -116
-256 -3 -82 -2 -88 37 -168 53 -109 110 -163 286 -272 235 -146 315 -239 317
-366 1 -77 -31 -151 -87 -203 -49 -45 -89 -56 -174 -48 -131 11 -231 92 -312
251 -30 58 -50 86 -61 86 -21 0 -22 -19 -8 -195 17 -211 18 -215 49 -215 16 0
36 9 46 20 21 24 44 25 108 5 26 -8 94 -20 151 -26 91 -11 113 -10 171 4 96
24 166 61 226 120 60 59 93 124 110 218 26 148 -42 307 -175 407 -28 21 -119
82 -203 134 -192 121 -246 166 -279 235 l-27 54 17 63 c20 74 61 128 119 158
34 17 53 20 108 15 37 -3 85 -15 106 -25 56 -29 130 -113 164 -187 64 -136 84
-116 84 84 0 135 -2 151 -20 171 -52 58 -254 101 -370 79z"/>
<path d="M11955 6391 c-141 -63 -336 -158 -367 -178 -21 -13 -38 -30 -38 -38
0 -9 36 -25 103 -47 149 -48 138 -1 135 -568 -3 -424 -5 -468 -21 -498 -23
-43 -86 -87 -150 -106 -29 -9 -59 -20 -67 -26 -13 -9 -13 -11 0 -20 20 -13
700 -13 720 0 13 8 12 11 -5 24 -11 8 -36 18 -55 21 -78 15 -152 74 -170 136
-6 20 -10 281 -10 661 0 344 -3 633 -6 642 -8 20 -19 19 -69 -3z"/>
<path d="M7282 6329 c4 -26 18 -35 75 -49 60 -15 133 -68 170 -122 17 -27 47
-90 67 -140 41 -109 271 -729 358 -968 33 -91 65 -170 72 -177 6 -6 40 -13 74
-15 56 -2 66 0 82 20 17 21 66 140 184 452 197 521 205 540 216 540 5 0 11 -8
15 -17 25 -68 122 -328 224 -606 129 -349 145 -387 164 -388 64 -3 120 1 132
11 15 12 81 175 208 515 161 428 280 726 313 782 36 62 98 111 151 119 49 7
90 34 79 52 -5 9 -95 12 -327 12 -310 0 -319 -1 -319 -20 0 -24 21 -35 85 -45
61 -9 91 -26 128 -73 26 -34 28 -42 23 -94 -7 -73 -64 -240 -188 -558 -109
-277 -145 -360 -157 -360 -13 0 -48 78 -97 215 -25 72 -82 229 -126 350 -140
383 -148 405 -148 433 1 55 38 79 140 88 71 7 100 21 100 50 0 12 -57 14 -380
14 -365 0 -380 -1 -380 -19 0 -24 19 -39 61 -47 74 -15 151 -70 198 -142 17
-27 31 -58 31 -69 0 -27 -37 -140 -93 -283 -25 -63 -82 -209 -127 -325 -45
-115 -89 -223 -99 -238 -17 -26 -18 -27 -34 -10 -14 16 -207 532 -313 837 -61
175 -42 220 96 232 81 7 100 16 100 45 0 18 -15 19 -381 19 l-380 0 3 -21z"/>
<path d="M5710 4703 c-175 -12 -313 -49 -455 -120 -234 -117 -418 -307 -495
-511 -82 -216 -98 -486 -41 -692 44 -159 162 -347 284 -453 177 -154 350 -235
611 -288 182 -36 237 -61 366 -167 234 -192 498 -355 645 -398 76 -23 293 -26
318 -6 26 22 9 40 -51 57 -91 27 -199 89 -307 176 -55 44 -180 141 -277 215
-98 74 -178 137 -178 139 0 3 39 25 88 49 271 137 518 391 600 619 53 147 64
209 64 362 1 119 -3 156 -26 245 -109 431 -464 719 -946 770 -93 9 -109 10
-200 3z m275 -127 c33 -9 98 -35 145 -58 71 -35 101 -57 185 -142 151 -152
217 -281 262 -504 22 -113 24 -145 20 -287 -4 -132 -9 -177 -31 -258 -63 -236
-216 -441 -396 -532 -105 -53 -185 -70 -335 -69 -124 0 -149 3 -220 27 -368
122 -604 459 -640 912 -12 157 23 339 95 500 97 216 282 367 515 421 78 18
316 12 400 -10z"/>
<path d="M11411 4132 c-20 -21 -65 -71 -100 -111 -35 -40 -106 -107 -158 -148
-51 -40 -93 -78 -93 -83 0 -12 31 -19 100 -22 l55 -3 5 -455 5 -455 30 -59
c54 -107 150 -166 270 -166 67 0 167 49 247 120 61 54 103 113 93 130 -10 16
-22 12 -91 -31 -75 -48 -152 -79 -193 -79 -16 0 -47 10 -70 22 -74 39 -74 42
-72 532 1 237 4 432 7 435 3 3 96 7 207 8 111 1 208 2 216 2 17 1 10 95 -11
138 l-13 28 -200 5 -200 5 -3 33 c-2 19 4 54 12 80 19 53 21 112 5 112 -6 0
-28 -17 -48 -38z"/>
<path d="M13700 4157 c-9 -7 -53 -54 -99 -105 -45 -50 -127 -128 -182 -173
-54 -44 -99 -84 -99 -88 0 -13 27 -21 73 -21 23 0 52 -3 64 -6 l22 -6 3 -442
c3 -434 4 -442 26 -499 41 -100 101 -153 202 -177 80 -19 117 -15 200 26 119
59 270 224 205 224 -9 0 -42 -16 -73 -37 -76 -48 -157 -83 -197 -85 -52 -2
-96 30 -127 91 l-28 55 0 410 c0 242 4 417 10 426 8 13 45 15 225 16 118 0
218 4 222 8 10 10 -13 110 -32 140 l-17 26 -182 0 c-209 0 -230 4 -222 34 48
165 50 218 6 183z"/>
<path d="M14593 4118 c-136 -147 -197 -207 -251 -248 -101 -76 -104 -100 -14
-100 31 0 62 -4 69 -8 8 -5 12 -128 16 -437 4 -468 7 -496 62 -576 38 -53 97
-93 163 -109 123 -29 234 15 357 140 52 54 73 83 69 94 -9 25 -30 19 -93 -24
-70 -47 -153 -80 -201 -80 -53 0 -104 40 -127 97 -17 44 -18 81 -16 466 1 231
4 422 8 425 4 4 97 8 208 8 111 1 210 2 220 3 17 1 18 7 12 54 -4 28 -14 67
-22 85 l-15 32 -199 0 c-169 0 -201 2 -205 15 -4 8 3 52 15 98 12 45 21 90 21
100 0 30 -27 18 -77 -35z"/>
<path d="M7301 3930 c-90 -27 -168 -53 -174 -59 -14 -14 -3 -24 54 -45 25 -9
59 -30 75 -47 l29 -30 5 -482 c6 -535 3 -518 74 -572 81 -61 205 -80 343 -51
89 19 261 84 344 130 36 20 69 33 72 29 4 -3 7 -44 7 -90 0 -66 3 -83 15 -83
8 0 85 29 172 64 285 114 305 130 183 138 -41 3 -80 12 -96 22 -53 36 -54 42
-54 606 0 419 -3 520 -13 520 -22 0 -361 -101 -371 -110 -15 -15 3 -28 58 -44
39 -12 61 -25 80 -50 l26 -35 0 -398 c0 -452 6 -420 -86 -479 -70 -45 -148
-64 -259 -63 -125 0 -181 25 -240 103 l-30 39 -5 516 c-5 507 -5 516 -25 518
-11 0 -94 -21 -184 -47z"/>
<path d="M9183 3969 c-203 -34 -383 -207 -383 -369 0 -35 3 -40 23 -40 26 0
136 42 173 67 19 12 24 24 24 54 0 76 42 144 112 180 45 23 73 24 135 3 53
-18 93 -51 126 -104 20 -32 22 -50 25 -228 4 -178 2 -195 -15 -208 -37 -31
-142 -74 -262 -109 -221 -64 -303 -112 -347 -201 -38 -77 -37 -142 1 -213 57
-105 186 -189 268 -176 80 14 162 56 283 147 28 21 58 38 67 38 9 0 26 -23 42
-57 35 -77 80 -123 119 -123 39 0 96 27 188 86 89 56 128 92 128 116 0 23 -12
23 -62 -3 -50 -26 -115 -19 -156 16 l-27 23 -5 429 -5 428 -29 53 c-52 92
-161 162 -293 188 -41 8 -75 13 -76 13 -1 -1 -25 -5 -54 -10z m238 -888 c-2
-169 -7 -189 -63 -236 -44 -38 -132 -77 -182 -82 -31 -3 -53 3 -91 24 -82 47
-117 120 -96 201 14 52 56 93 129 128 129 62 278 124 291 122 10 -2 13 -35 12
-157z"/>
<path d="M12517 3954 c-84 -20 -197 -75 -247 -120 -69 -63 -146 -186 -189
-306 -67 -182 -58 -405 23 -574 91 -192 216 -293 401 -324 75 -12 203 12 300
59 170 81 362 261 278 261 -8 0 -33 -15 -55 -34 -22 -19 -71 -51 -109 -71
-124 -65 -307 -72 -423 -16 -102 50 -216 202 -247 331 -16 66 -18 225 -4 239
7 7 157 12 428 15 323 3 421 7 433 17 35 29 -2 169 -77 296 -52 87 -133 164
-218 206 -67 34 -81 37 -155 36 -44 0 -107 -7 -139 -15z m168 -103 c89 -41
187 -183 189 -276 l1 -50 -300 0 -300 0 2 42 c5 110 124 261 231 293 49 15
135 10 177 -9z"/>
<path d="M10255 3887 c-176 -79 -235 -111 -235 -127 0 -12 19 -20 100 -44 101
-30 104 -35 111 -183 10 -213 -1 -703 -17 -735 -20 -39 -72 -75 -139 -96 -32
-9 -60 -23 -63 -30 -3 -9 78 -12 368 -12 293 0 371 3 368 13 -5 13 -43 26
-151 51 -73 17 -107 36 -131 78 -14 22 -16 75 -16 386 0 205 4 372 10 386 12
32 74 102 124 138 53 38 126 38 211 1 33 -14 78 -26 100 -27 39 -1 40 0 74 67
27 52 33 72 25 85 -14 23 -110 69 -189 90 l-65 17 -47 -25 c-30 -16 -79 -62
-137 -127 -50 -57 -94 -103 -98 -103 -5 0 -8 44 -8 98 0 114 -8 172 -24 171
-6 0 -83 -32 -171 -72z"/>
</g>
</svg>
